<?xml version="1.0" encoding="utf-8"?>
<!-- Generator: Adobe Illustrator 21.1.0, SVG Export Plug-In . SVG Version: 6.00 Build 0)  -->
<svg version="1.1" id="Layer_1" xmlns="http://www.w3.org/2000/svg" xmlns:xlink="http://www.w3.org/1999/xlink" x="0px" y="0px"
	 viewBox="0 0 128 128" style="enable-background:new 0 0 128 128;" xml:space="preserve">
<style type="text/css">
	.st0{fill:#FFFFFF;}
</style>
<path d="M64,128L64,128C28.7,128,0,99.3,0,64l0,0C0,28.7,28.7,0,64,0l0,0c35.3,0,64,28.7,64,64l0,0C128,99.3,99.3,128,64,128z"/>
<g>
	<path class="st0" d="M64.1,70.7C52.7,59.3,41.5,48.1,30.2,36.8c0,14.6,0,29,0,43.6c-0.4,0-0.7,0-1,0c-4.6,0-9.1,0-13.7,0
		c-0.7,0-1-0.2-1.2-0.8c-1.9-6.3-2.7-12.6-2.2-19.2c0.8-11.1,4.7-21,11.7-29.5c7.9-9.5,17.9-15.6,30-17.9
		C70,9.9,84.6,13.7,97.3,24.2c9.6,8,15.5,18.3,17.8,30.7c1.5,8.4,0.9,16.6-1.5,24.7c-0.2,0.7-0.5,0.9-1.2,0.9c-4.6,0-9.1,0-13.7,0
		c-0.3,0-0.6,0-0.9,0c0-14.5,0-29,0-43.5C86.6,48.2,75.4,59.4,64.1,70.7z"/>
	<path class="st0" d="M19.7,91c7.2,0,14.4,0,21.7,0c0-9.1,0-18.2,0-27.4c7.6,7.6,15,15,22.5,22.5c7.6-7.5,15-15,22.6-22.5
		c0,9.2,0,18.3,0,27.4c7.3,0,14.5,0,21.9,0c-4.3,6.9-9.7,12.5-16.4,16.8c-6.7,4.3-14,7-21.9,7.9C46.2,118.4,27.6,104.9,19.7,91z"/>
</g>
</svg>
