<?xml version="1.0" encoding="utf-8"?>
<!-- Generator: Adobe Illustrator 21.1.0, SVG Export Plug-In . SVG Version: 6.00 Build 0)  -->
<svg version="1.1" id="Layer_1" xmlns="http://www.w3.org/2000/svg" xmlns:xlink="http://www.w3.org/1999/xlink" x="0px" y="0px"
	 viewBox="0 0 128 128" style="enable-background:new 0 0 128 128;" xml:space="preserve">
<style type="text/css">
	.st0{fill:#FFFFFF;}
</style>
<path d="M87.5,128h-47C18.1,128,0,109.9,0,87.5v-47C0,18.1,18.1,0,40.5,0h47C109.9,0,128,18.1,128,40.5v47
	C128,109.9,109.9,128,87.5,128z"/>
<g>
	<g>
		<polygon class="st0" points="65.2,87.2 65.2,109.9 93.4,70.4 		"/>
	</g>
	<g>
		<polygon class="st0" points="92.3,63.1 65.2,18.1 65.2,50.8 		"/>
		<polygon class="st0" points="65.2,53.3 65.2,81.3 92.1,65.6 		"/>
	</g>
	<g>
		<polygon class="st0" points="35.8,63.1 62.9,18.1 62.9,50.8 		"/>
		<polygon class="st0" points="62.9,53.3 62.9,81.3 36,65.6 		"/>
	</g>
	<g>
		<polygon class="st0" points="62.8,87.2 62.8,109.9 34.7,70.4 		"/>
	</g>
</g>
</svg>
