<?xml version="1.0" encoding="utf-8"?>
<!-- Generator: Adobe Illustrator 21.1.0, SVG Export Plug-In . SVG Version: 6.00 Build 0)  -->
<svg version="1.1" id="Layer_1" xmlns="http://www.w3.org/2000/svg" xmlns:xlink="http://www.w3.org/1999/xlink" x="0px" y="0px"
	 viewBox="0 0 128 128" style="enable-background:new 0 0 128 128;" xml:space="preserve">
<g>
	<path d="M64,0C28.7,0,0,28.7,0,64c0,35.3,28.7,64,64,64s64-28.7,64-64C128,28.7,99.3,0,64,0z M64,123C31.5,123,5,96.5,5,64
		S31.5,5,64,5s59,26.5,59,59S96.5,123,64,123z"/>
	<path d="M48.6,16.4c-0.4-1-1.5-1.6-2.6-1.2C19.1,25.1,5.3,55.1,15.2,82c0.3,0.8,1.1,1.3,1.9,1.3c0.2,0,0.5,0,0.7-0.1
		c1-0.4,1.6-1.5,1.2-2.6C9.8,55.7,22.6,28.1,47.4,19C48.5,18.6,49,17.4,48.6,16.4z"/>
	<path d="M112.8,46c-0.4-1-1.5-1.6-2.6-1.2c-1,0.4-1.6,1.5-1.2,2.6c9.1,24.8-3.6,52.5-28.5,61.6c-1,0.4-1.6,1.5-1.2,2.6
		c0.3,0.8,1.1,1.3,1.9,1.3c0.2,0,0.5,0,0.7-0.1C108.9,102.9,122.7,72.9,112.8,46z"/>
	<path d="M32.2,63.9c0,0.1,0,0.1,0,0.2c0,0,0,0,0,0c0,0.1,0,0.1,0.1,0.2c0,0,0,0.1,0,0.1c0,0,0,0,0,0c0,0.1,0.1,0.1,0.1,0.2
		c0,0,0.1,0.1,0.1,0.1c0,0,0.1,0.1,0.1,0.1c0,0.1,0.1,0.1,0.1,0.2c0,0,0.1,0.1,0.1,0.1c0.1,0.1,0.1,0.1,0.2,0.1c0,0,0,0,0,0L63,82.8
		c0,0,0,0,0.1,0c0.1,0.1,0.2,0.1,0.3,0.1c0,0,0.1,0,0.1,0c0.2,0,0.3,0.1,0.5,0.1s0.3,0,0.5-0.1c0,0,0.1,0,0.1,0
		c0.1,0,0.2-0.1,0.3-0.1c0,0,0,0,0.1,0l29.9-17.5c0,0,0,0,0,0c0,0,0.1,0,0.1-0.1c0.1-0.1,0.2-0.2,0.3-0.3c0,0,0.1-0.1,0.1-0.1
		c0.1-0.1,0.2-0.3,0.3-0.4c0,0,0,0,0,0c0,0,0-0.1,0-0.1c0-0.1,0.1-0.1,0.1-0.2c0,0,0,0,0,0c0-0.1,0-0.1,0-0.2c0-0.1,0-0.1,0-0.2
		c0-0.1,0-0.1,0-0.2c0-0.1,0-0.1,0-0.2c0-0.1,0-0.1-0.1-0.2c0-0.1,0-0.1,0-0.2c0-0.1-0.1-0.1-0.1-0.2c0,0,0-0.1-0.1-0.1L65.7,12.9
		c0,0,0,0,0,0c-0.1-0.1-0.2-0.3-0.3-0.4c0,0,0,0-0.1,0c-0.1-0.1-0.2-0.2-0.3-0.2c0,0-0.1,0-0.1-0.1c-0.1-0.1-0.2-0.1-0.3-0.1
		c0,0-0.1,0-0.1,0C64.3,12,64.2,12,64,12s-0.3,0-0.5,0.1c0,0-0.1,0-0.1,0c-0.1,0-0.2,0.1-0.3,0.1c0,0-0.1,0-0.1,0.1
		c-0.1,0.1-0.2,0.1-0.3,0.2c0,0,0,0-0.1,0c-0.1,0.1-0.2,0.2-0.3,0.4c0,0,0,0,0,0L32.4,62.6c0,0,0,0.1-0.1,0.1c0,0.1-0.1,0.1-0.1,0.2
		c0,0.1,0,0.1,0,0.2c0,0.1,0,0.1-0.1,0.2c0,0.1,0,0.1,0,0.2c0,0.1,0,0.1,0,0.2C32.1,63.8,32.1,63.8,32.2,63.9z M62,77.6L38.5,63.8
		L62,53.2V77.6z M66,53.2l23.5,10.7L66,77.6V53.2z M66,48.8V21.2l22.8,38L66,48.8z M62,48.8L39.2,59.1l22.8-38V48.8z"/>
	<path d="M95.3,70.3c-0.6-0.7-1.7-0.8-2.5-0.4L64,87.2L35.2,69.9c-0.8-0.5-1.9-0.3-2.5,0.4S32,72,32.5,72.8l29.9,42
		c0.4,0.5,1,0.8,1.6,0.8s1.3-0.3,1.6-0.8l29.9-42C96,72,96,71,95.3,70.3z M62,90.7v16.7L41.3,78.3L62,90.7z M66,107.4V90.7
		l20.7-12.4L66,107.4z"/>
</g>
</svg>
