<?xml version="1.0" encoding="utf-8"?>
<!-- Generator: Adobe Illustrator 21.1.0, SVG Export Plug-In . SVG Version: 6.00 Build 0)  -->
<svg version="1.1" id="Layer_1" xmlns="http://www.w3.org/2000/svg" xmlns:xlink="http://www.w3.org/1999/xlink" x="0px" y="0px"
	 viewBox="0 0 128 128" style="enable-background:new 0 0 128 128;" xml:space="preserve">
<g>
	<path d="M64,0C28.7,0,0,28.7,0,64s28.7,64,64,64s64-28.7,64-64S99.3,0,64,0z M64,123C31.5,123,5,96.5,5,64S31.5,5,64,5
		s59,26.5,59,59S96.5,123,64,123z"/>
	<path d="M78.4,18.2c1.1,0.3,2.2-0.3,2.5-1.3c0.3-1.1-0.3-2.2-1.3-2.5c-27.4-8.6-56.6,6.7-65.2,34c-0.3,1.1,0.3,2.2,1.3,2.5
		c0.2,0.1,0.4,0.1,0.6,0.1c0.9,0,1.6-0.5,1.9-1.4C26.1,24.4,53.1,10.3,78.4,18.2z"/>
	<path d="M112.3,77.1c-1.1-0.3-2.2,0.3-2.5,1.3c-7.9,25.3-34.9,39.3-60.2,31.4c-1.1-0.3-2.2,0.3-2.5,1.3s0.3,2.2,1.3,2.5
		c5.2,1.6,10.4,2.4,15.5,2.4c22.1,0,42.7-14.2,49.6-36.4C113.9,78.5,113.4,77.4,112.3,77.1z"/>
	<path d="M38.7,78c0.2,0,0.4,0,0.6,0l0.2,0c1.1,0,1.9-0.9,1.9-2V49l21.2,21.2c0.8,0.8,2,0.8,2.8,0l21.2-21.1V76c0,1.1,0.9,2,2,2
		l3.1,0c2.5,0,5,0,7.5,0c0,0,0,0,0,0c1.4,0,2.4-0.7,2.8-2.1c1.9-6.3,2.3-12.7,1.2-18.9c-1.7-9.5-6.3-17.5-13.6-23.5
		c-9.7-8-20.9-10.9-33.3-8.6c-9.2,1.7-16.9,6.4-23,13.7c-5.4,6.5-8.4,14.1-9,22.6c-0.3,4.9,0.2,9.8,1.7,14.7c0.4,1.3,1.4,2,2.8,2
		c0,0,0,0,0,0c2.4,0,4.8,0,7.2,0L38.7,78z M28.2,61.6c0.5-7.7,3.3-14.5,8.1-20.4c5.5-6.7,12.5-10.8,20.7-12.4
		c11.2-2.1,21.3,0.5,30,7.7c6.6,5.4,10.7,12.6,12.3,21.2c1,5.4,0.7,10.8-0.8,16.3c-1.4,0-2.8,0-4.3,0c-0.8,0-1.6,0-2.4,0l-1.1,0
		V44.3c0-0.8-0.5-1.5-1.2-1.8c-0.7-0.3-1.6-0.1-2.2,0.4L64.1,66L40.8,42.8c-0.6-0.6-1.4-0.7-2.2-0.4c-0.7,0.3-1.2,1-1.2,1.8V74h-1.5
		c-2.1,0-4.2,0-6.4,0C28.4,69.9,27.9,65.7,28.2,61.6z"/>
	<path d="M68.8,103.6c6-0.7,11.6-2.7,16.8-6c5.2-3.3,9.3-7.5,12.6-12.9c0.4-0.6,0.4-1.4,0-2c-0.4-0.6-1-1-1.7-1h-14V63.7
		c0-0.8-0.5-1.5-1.2-1.8c-0.7-0.3-1.6-0.1-2.2,0.4l-15,15l-15-15c-0.6-0.6-1.4-0.7-2.2-0.4c-0.7,0.3-1.2,1-1.2,1.8v18H31.7
		c-0.7,0-1.4,0.4-1.7,1s-0.4,1.4,0,2c5.7,10,18.1,19.2,34,19.2C65.5,103.9,67.1,103.8,68.8,103.6z M35.4,85.7h12.1c1.1,0,2-0.9,2-2
		V68.5l13,13c0.8,0.8,2,0.8,2.8,0l13-13v15.1c0,1.1,0.9,2,2,2h12.2C90,89,87,91.9,83.4,94.2c-4.6,3-9.7,4.8-15.1,5.4
		C53.7,101.3,41.8,94.2,35.4,85.7z"/>
</g>
</svg>
