<?xml version="1.0" encoding="utf-8"?>
<!-- Generator: Adobe Illustrator 21.1.0, SVG Export Plug-In . SVG Version: 6.00 Build 0)  -->
<svg version="1.1" id="Layer_1" xmlns="http://www.w3.org/2000/svg" xmlns:xlink="http://www.w3.org/1999/xlink" x="0px" y="0px"
	 viewBox="0 0 128 128" style="enable-background:new 0 0 128 128;" xml:space="preserve">
<path d="M74.8,4L74.8,4 M74.8,4c0,5.8-0.1,13.1-0.1,18.3c3,0.5,5.9,1,8.8,1.6c4.1,0.9,7.9,2.5,11.4,5c8.5,6.2,9.6,24.3-2.2,30.3
	c-0.2,0.1-0.4,0.3-0.7,0.5c2.4,1.1,4.8,1.8,6.9,3.1c4.6,2.7,7.3,6.8,8,12.2c0.8,5.5,0.3,10.9-1.8,16c-2.8,6.6-8,10.4-14.7,12
	c-5.1,1.3-10.4,1.7-15.7,2.6c-0.3,0-0.5,0.1-0.9,0.1c-0.1,5.4-0.1,12.3-0.2,18.2h-11c0-5.7,0.1-12.6,0.1-18.2
	c-2.9-0.1-5.7-0.2-8.8-0.2c-0.1,5.5-0.1,12.5-0.2,18.4h-11c0-5.9,0.1-13,0.1-18.7c-7.5-0.1-14.7-0.2-22.2-0.3
	c0.8-4.4,1.5-8.6,2.3-13.1c2.5,0,4.9,0,7.3,0c0,0,0,0,0.1,0c3.4,0,4.8-1.4,4.8-4.8c0.2-15.7,0.4-31.4,0.5-47.1c0-3.8-2-5.9-5.8-6.2
	c-1.4-0.1-2.8-0.1-4.2-0.1c-1.4,0-2.8,0-4.4-0.1c0-3.9,0.1-7.7,0.1-11.7c7.4,0.1,14.7,0.1,22.2,0.2C43.9,17,44,9.8,44,4h11
	c0,5.7-0.1,12.7-0.1,17.9c2.9,0,5.7,0,8.8,0c0.1-5.1,0.1-12.2,0.2-17.9H74.8 M60.4,57c4.5,0,8.9-0.3,13.2-1.8
	c4.4-1.4,6.9-4.5,7.1-8.8c0.2-4.1-1.8-7.4-5.9-9.2c-4.5-2-9.3-2.3-14.1-2.3c-1.8,0-3.7,0-5.6,0c-0.1,7.5-0.1,14.7-0.2,22
	C56.7,56.9,58.5,57,60.4,57 M55.1,68c-0.2,0-0.3,0-0.5,0c-0.1,8.1-0.2,16.1-0.3,24.2c1.8,0,3.5,0.1,5.2,0.1c0.1,0,0.3,0,0.4,0
	c6.4-0.1,12.9-0.1,18.9-2.8c4-1.8,6.5-4.7,6.5-9.3c0-4.6-2.4-7.7-6.4-9.4C73.3,68.3,67.3,68,61.1,68C59.2,68,57.2,68,55.1,68
	 M74.8,0L74.8,0h-11c-2.2,0-4,1.8-4,4c0,2.4-0.1,5.1-0.1,7.7c0,2.1,0,4.2-0.1,6.2l-0.8,0c0-2,0-4.1,0-6.3L59,4
	c0-1.1-0.4-2.1-1.2-2.8C57.1,0.4,56.1,0,55,0H44c-2.2,0-4,1.8-4,4c0,2.5-0.1,5.2-0.1,7.9c0,2.2,0,4.3-0.1,6.4l-6.1-0.1L21.7,18
	c0,0,0,0,0,0c-2.2,0-4,1.8-4,4l-0.1,8.2l0,3.5c0,2.2,1.7,4,3.9,4l1.5,0c1,0,1.9,0,2.9,0c0.3,0,0.6,0,1,0c1,0,2,0,3,0.1
	c1.8,0.1,2.1,0.6,2.1,2.2c-0.2,15.9-0.3,32-0.5,47.1c0,0.4,0,0.6-0.1,0.8c-0.2,0-0.4,0-0.8,0c-1.7,0-3.4,0-5.1,0l-2.3,0c0,0,0,0,0,0
	c-1.9,0-3.6,1.4-3.9,3.3l-1.1,6.3l-1.2,6.8c-0.2,1.2,0.1,2.3,0.9,3.2s1.9,1.4,3,1.4l1.3,0l16.9,0.2c0,2,0,4,0,6.1l0,8.6
	c0,1.1,0.4,2.1,1.2,2.8c0.8,0.8,1.8,1.2,2.8,1.2h11c2.2,0,4-1.8,4-4c0-2.7,0.1-5.6,0.1-8.5c0-2,0-4,0.1-5.9l0.1,0l0.7,0
	c0,2,0,4.1,0,6.1l0,8.1c0,1.1,0.4,2.1,1.2,2.8c0.8,0.8,1.8,1.2,2.8,1.2h11c2.2,0,4-1.8,4-4c0-2.7,0.1-5.6,0.1-8.5
	c0-2.2,0-4.3,0.1-6.4c0.8-0.1,1.6-0.2,2.3-0.3c3.7-0.5,7.5-1,11.2-2c8.3-2.1,14.3-7,17.4-14.4c2.3-5.5,3-11.6,2.1-18.1
	c-1-6.6-4.4-11.8-10-15c-0.4-0.2-0.7-0.4-1.1-0.6c3.1-3.4,5-7.9,5.4-13.1c0.6-8.1-2.5-15.9-8.1-19.9c-3.8-2.7-8-4.6-12.9-5.7
	c-1.9-0.4-3.8-0.8-5.6-1.1c0-2.2,0-4.5,0-6.9c0-2.7,0-5.4,0.1-7.9c0-0.1,0-0.1,0-0.2C78.8,1.8,77.1,0,74.8,0L74.8,0z M74.8,8L74.8,8
	L74.8,8L74.8,8z M59,38.8c0.5,0,1.1,0,1.6,0c4.9,0,8.8,0.3,12.5,2c2.5,1.1,3.7,2.9,3.6,5.4c-0.1,1.7-0.6,4-4.4,5.3
	c-3.3,1.1-7,1.6-11.9,1.6c-0.5,0-1,0-1.5,0l0-3.8L59,38.8L59,38.8z M58.6,72c0.8,0,1.7,0,2.5,0c0,0,0,0,0,0c5.4,0,11,0.2,16.3,2.5
	c2.8,1.2,4,3,4,5.8c0,1.9-0.5,4.1-4.1,5.7c-5.3,2.3-11.1,2.4-17.2,2.4l-0.1,0l-0.4,0c-0.4,0-0.7,0-1.1,0l0.1-12.8L58.6,72L58.6,72z"
	/>
</svg>
