<?xml version="1.0" encoding="utf-8"?>
<!-- Generator: Adobe Illustrator 21.1.0, SVG Export Plug-In . SVG Version: 6.00 Build 0)  -->
<svg version="1.1" id="Layer_1" xmlns="http://www.w3.org/2000/svg" xmlns:xlink="http://www.w3.org/1999/xlink" x="0px" y="0px"
	 viewBox="0 0 128 128" style="enable-background:new 0 0 128 128;" xml:space="preserve">
<style type="text/css">
	.st0{fill:#231F20;}
</style>
<g>
	<path class="st0" d="M127,52.8c-2.8-15.3-10.1-28-21.9-37.7C89.5,2.1,71.5-2.5,51.6,1.3C36.9,4,24.4,11.5,14.6,23.3
		C6,33.8,1.1,46,0.2,59.6c-0.6,7.8,0.4,15.8,2.7,23.6c0.5,1.6,1.6,2.4,3.3,2.4c0,0,0,0,0,0c3.9,0,7.9,0,11.8,0l4.5,0
		c0.3,0,0.5,0,0.8,0l0.4,0c1.1,0,1.9-0.9,1.9-2V36.4l37,36.9c0.8,0.8,2,0.8,2.8,0l36.8-36.8v47.1c0,1.1,0.9,2,2,2l5.2,0
		c4.1,0,8.2,0,12.2,0c0,0,0,0,0,0c1.7,0,2.8-0.8,3.3-2.5C128.2,73,128.8,62.8,127,52.8z M121.4,81.6c-2.6,0-5.2,0-7.8,0
		c-1.4,0-2.7,0-4.1,0l-3.2,0V31.7c0-0.8-0.5-1.5-1.2-1.8s-1.6-0.1-2.2,0.4L64.1,69.1l-39-38.9c-0.6-0.6-1.4-0.7-2.2-0.4
		c-0.7,0.3-1.2,1-1.2,1.8v50l-3.7,0c-3.8,0-7.6,0-11.4,0c-2.1-7.2-3-14.5-2.5-21.7c0.9-12.8,5.5-24.3,13.6-34
		C26.9,14.8,38.6,7.8,52.3,5.2C71.1,1.7,88,6,102.5,18.1c11,9.1,17.9,21,20.5,35.4C124.7,62.8,124.2,72.3,121.4,81.6z"/>
	<path class="st0" d="M117,94.1H92.8V63.5c0-0.8-0.5-1.5-1.2-1.8c-0.7-0.3-1.6-0.1-2.2,0.4L63.9,87.5L38.5,62.1
		c-0.6-0.6-1.4-0.7-2.2-0.4c-0.7,0.3-1.2,1-1.2,1.8v30.7H11.2c-0.7,0-1.4,0.4-1.7,1c-0.4,0.6-0.4,1.4,0,2
		c9.1,16,29.1,30.8,54.5,30.8c2.5,0,5.1-0.1,7.7-0.5c9.6-1.1,18.7-4.4,26.9-9.7c8.3-5.3,14.9-12.1,20.1-20.7c0.4-0.6,0.4-1.4,0-2
		C118.4,94.5,117.7,94.1,117,94.1z M96.4,114.5c-7.7,5-16.2,8-25.2,9.1c-25.6,3-46.2-10.2-56.4-25.4h22.3c1.1,0,2-0.9,2-2V68.3
		l23.4,23.4c0.8,0.8,2,0.8,2.8,0l23.5-23.4v27.8c0,1.1,0.9,2,2,2h22.5C108.7,104.8,103.2,110.1,96.4,114.5z"/>
</g>
</svg>
